<?xml version="1.0" encoding="UTF-8"?>
<svg version="1.1" xmlns="http://www.w3.org/2000/svg" width="512" height="512">
<path d="M0 0 C0.99257813 0.85980469 1.98515625 1.71960938 3.0078125 2.60546875 C3.75289063 3.24871094 4.49796875 3.89195312 5.265625 4.5546875 C20.44098908 18.71631268 29.84053159 37.77315174 35.0078125 57.60546875 C35.37712891 59.00539062 35.37712891 59.00539062 35.75390625 60.43359375 C37.22043736 67.351575 37.23901989 74.37333677 37.3203125 81.41796875 C37.33811768 82.38992188 37.35592285 83.361875 37.37426758 84.36328125 C37.36794686 90.23668904 36.69833499 95.75759092 35.48510742 101.4987793 C35.34366051 102.18581688 35.20221359 102.87285446 35.05648041 103.58071136 C34.71089188 105.2564536 34.35991275 106.93108263 34.0078125 108.60546875 C35.17212799 108.5965863 36.33644348 108.58770386 37.53604126 108.57855225 C48.51236178 108.49744086 59.48862143 108.43749095 70.46517372 108.39822006 C76.10825727 108.37735169 81.75109874 108.34904727 87.39404297 108.30371094 C92.84053296 108.26022714 98.2867902 108.236326 103.7334404 108.22595978 C105.81066934 108.21857302 107.88788564 108.20414838 109.96501541 108.18254852 C112.87620756 108.15348126 115.78643983 108.14951419 118.69775391 108.15136719 C119.55515167 108.13698608 120.41254944 108.12260498 121.29592896 108.10778809 C126.69346962 108.14492526 129.71158588 109.04357653 134.0078125 112.60546875 C137.63614913 116.42477047 138.31781708 119.48825881 138.5078125 124.60546875 C138.31781708 129.72267869 137.63614913 132.78616703 134.0078125 136.60546875 C129.56947254 140.07664697 126.71704717 141.10578795 121.10180664 141.10883331 C120.42808517 141.11464708 119.75436371 141.12046084 119.06022644 141.12645078 C116.804108 141.14104146 114.54907913 141.12717107 112.29296875 141.11340332 C110.65863998 141.11801263 109.02431534 141.12436575 107.38999939 141.1323123 C102.90000317 141.14902467 98.41034663 141.14075062 93.92034912 141.12836742 C89.07773527 141.11932706 84.23518032 141.13328162 79.39257812 141.14428711 C69.90632966 141.16208775 60.42020769 141.15822546 50.93395424 141.14663655 C43.22532741 141.13760858 35.51673607 141.13637547 27.80810547 141.14073181 C26.16335881 141.14165121 26.16335881 141.14165121 24.48538494 141.14258918 C22.25797652 141.14386806 20.03056811 141.14516492 17.80315971 141.14647955 C-3.09071211 141.15788987 -23.98451378 141.14476453 -44.8783741 141.12327808 C-62.81218038 141.1054067 -80.74588309 141.10851068 -98.6796875 141.12695312 C-119.49801845 141.14835183 -140.31628788 141.15679119 -161.1346283 141.14450407 C-163.35391234 141.14322985 -165.5731964 141.14197237 -167.79248047 141.14073181 C-168.88445394 141.14011471 -169.9764274 141.13949761 -171.10149097 141.13886181 C-178.80221341 141.13540591 -186.50289688 141.14124242 -194.20361328 141.15065002 C-203.58629052 141.16186027 -212.96883387 141.15885045 -222.35149574 141.13752705 C-227.14008581 141.12700354 -231.92845253 141.12291696 -236.71704102 141.13612366 C-241.09907366 141.14802645 -245.48067553 141.14152004 -249.86266899 141.12021345 C-251.44939179 141.1157384 -253.03615085 141.11803388 -254.62285042 141.1277166 C-256.77781341 141.13986023 -258.93129618 141.12742853 -261.08618164 141.10883331 C-262.28360489 141.1081839 -263.48102814 141.10753449 -264.71473694 141.10686541 C-269.80938497 140.32746708 -272.88208201 137.77400084 -276.3671875 134.10546875 C-278.76522325 128.94046866 -278.74600285 124.20523995 -277.9921875 118.60546875 C-275.68676969 113.63995347 -272.75856416 111.20440164 -267.9921875 108.60546875 C-264.88025483 108.05910806 -261.83476055 108.0984882 -258.68212891 108.15136719 C-257.30556122 108.15049103 -257.30556122 108.15049103 -255.90118408 108.14959717 C-252.8816485 108.15237372 -249.86311217 108.18344572 -246.84375 108.21484375 C-244.74482767 108.22230766 -242.64589835 108.22799988 -240.54696655 108.23199463 C-235.03290437 108.24723909 -229.5192662 108.28651101 -224.00537109 108.33081055 C-218.37473282 108.37178868 -212.74402578 108.3900111 -207.11328125 108.41015625 C-196.07273077 108.45300613 -185.03249445 108.52124335 -173.9921875 108.60546875 C-174.2041275 107.59403305 -174.4160675 106.58259735 -174.63442993 105.54051208 C-174.91226511 104.19038272 -175.18987134 102.84020624 -175.46728516 101.48999023 C-175.67690636 100.49417057 -175.67690636 100.49417057 -175.89076233 99.47823334 C-177.11164944 93.49588648 -177.45689546 87.7552944 -177.3671875 81.66796875 C-177.35631104 80.63583252 -177.34543457 79.60369629 -177.33422852 78.5402832 C-176.73177472 49.39288651 -164.45970508 24.48459205 -144.33984375 3.890625 C-104.68032895 -33.90530027 -41.66729074 -34.91108961 0 0 Z " fill="#FFB505" transform="translate(325.9921875,195.39453125)"/>
<path d="M0 0 C0.67372147 -0.00581376 1.34744293 -0.01162753 2.0415802 -0.01761746 C4.29769864 -0.03220815 6.55272751 -0.01833775 8.80883789 -0.00457001 C10.44316667 -0.00917932 12.0774913 -0.01553244 13.71180725 -0.02347898 C18.20180347 -0.04019136 22.69146001 -0.03191731 27.18145752 -0.01953411 C32.02407137 -0.01049375 36.86662632 -0.02444831 41.70922852 -0.0354538 C51.19547698 -0.05325443 60.68159895 -0.04939215 70.1678524 -0.03780323 C77.87647923 -0.02877527 85.58507057 -0.02754215 93.29370117 -0.0318985 C94.39019895 -0.03251143 95.48669672 -0.03312436 96.6164217 -0.03375587 C98.84383012 -0.03503475 101.07123853 -0.0363316 103.29864693 -0.03764623 C124.19251875 -0.04905656 145.08632042 -0.03593122 165.98018074 -0.01444477 C183.91398702 0.00342661 201.84768973 0.00032263 219.78149414 -0.01811981 C240.59982509 -0.03951852 261.41809452 -0.04795788 282.23643494 -0.03567076 C284.45571898 -0.03439654 286.67500304 -0.03313906 288.89428711 -0.0318985 C289.98626058 -0.0312814 291.07823404 -0.03066429 292.20329762 -0.03002849 C299.90402005 -0.0265726 307.60470352 -0.0324091 315.30541992 -0.04181671 C324.68809716 -0.05302696 334.07064051 -0.05001714 343.45330238 -0.02869374 C348.24189245 -0.01817023 353.03025917 -0.01408365 357.81884766 -0.02729034 C362.2008803 -0.03919313 366.58248217 -0.03268673 370.96447563 -0.01138014 C372.55119843 -0.00690509 374.13795749 -0.00920057 375.72465706 -0.01888329 C377.87962005 -0.03102691 380.03310282 -0.01859521 382.18798828 0 C383.38541153 0.00064941 384.58283478 0.00129882 385.81654358 0.00196791 C390.91119161 0.78136623 393.98388865 3.33483247 397.46899414 7.00336456 C399.86702989 12.16836465 399.84780949 16.90359336 399.09399414 22.50336456 C396.78330437 27.48023484 393.80811455 29.81086951 389.09399414 32.50336456 C385.81654358 33.00476122 385.81654358 33.00476122 382.18798828 33.00672913 C381.51426682 33.01254289 380.84054535 33.01835665 380.14640808 33.02434659 C377.89028964 33.03893727 375.63526077 33.02506688 373.37915039 33.01129913 C371.74482162 33.01590845 370.11049699 33.02226157 368.47618103 33.03020811 C363.98618481 33.04692049 359.49652827 33.03864643 355.00653076 33.02626324 C350.16391691 33.01722287 345.32136196 33.03117744 340.47875977 33.04218292 C330.9925113 33.05998356 321.50638933 33.05612127 312.02013588 33.04453236 C304.31150905 33.03550439 296.60291771 33.03427128 288.89428711 33.03862762 C287.24954045 33.03954702 287.24954045 33.03954702 285.57156658 33.04048499 C283.34415816 33.04176388 281.11674975 33.04306073 278.88934135 33.04437536 C257.99546953 33.05578568 237.10166786 33.04266035 216.20780754 33.02117389 C198.27400126 33.00330251 180.34029855 33.00640649 162.40649414 33.02484894 C141.58816319 33.04624765 120.76989376 33.05468701 99.95155334 33.04239988 C97.7322693 33.04112567 95.51298524 33.03986818 93.29370117 33.03862762 C92.20172771 33.03801052 91.10975424 33.03739342 89.98469067 33.03675762 C82.28396823 33.03330172 74.58328476 33.03913823 66.88256836 33.04854584 C57.49989112 33.05975609 48.11734777 33.05674626 38.7346859 33.03542286 C33.94609583 33.02489935 29.15772911 33.02081278 24.36914062 33.03401947 C19.98710798 33.04592226 15.60550611 33.03941585 11.22351265 33.01810926 C9.63678985 33.01363421 8.05003079 33.0159297 6.46333122 33.02561241 C4.30836823 33.03775604 2.15488546 33.02532434 0 33.00672913 C-1.19742325 33.00607972 -2.3948465 33.00543031 -3.6285553 33.00476122 C-8.72320333 32.22536289 -11.79590037 29.67189665 -15.28100586 26.00336456 C-17.67904161 20.83836448 -17.65982121 16.10313576 -16.90600586 10.50336456 C-13.49255297 3.15131218 -7.9695115 0.00432218 0 0 Z " fill="#B5CFFF" transform="translate(64.906005859375,303.4966354370117)"/>
<path d="M0 0 C1.23356926 -0.00382555 2.46713852 -0.00765109 3.73808867 -0.01159257 C7.1501777 -0.02011062 10.56205065 -0.01969474 13.97413337 -0.01541197 C17.65859917 -0.01294197 21.3430398 -0.02196228 25.02749634 -0.02944946 C32.24091837 -0.04219055 39.45430317 -0.04399092 46.66773456 -0.0416492 C52.53134795 -0.03986533 58.39495005 -0.04161715 64.25856209 -0.04587364 C65.51091341 -0.04676643 65.51091341 -0.04676643 66.78856476 -0.04767724 C68.48472217 -0.04888901 70.18087959 -0.05010314 71.877037 -0.05131962 C87.77883733 -0.06219275 103.68061645 -0.06003366 119.58241797 -0.05393478 C134.12627969 -0.048765 148.67007444 -0.06002306 163.21392291 -0.07903299 C178.15295343 -0.09840957 193.09195226 -0.10666776 208.03099543 -0.10290974 C216.41598977 -0.10099753 224.8009271 -0.10348729 233.18591118 -0.11762428 C240.32357834 -0.1295367 247.46115339 -0.13094449 254.59882181 -0.11883412 C258.23932546 -0.11294463 261.87966061 -0.11184785 265.52015305 -0.12383652 C269.46916666 -0.13668993 273.41792489 -0.12623257 277.36694336 -0.11352539 C278.51393218 -0.12089968 279.66092099 -0.12827396 280.84266704 -0.13587171 C287.8576199 -0.08834096 294.19016829 0.29107612 299.80555725 4.97944641 C300.26059631 5.56725891 300.71563538 6.15507141 301.1844635 6.76069641 C301.65754944 7.34850891 302.13063538 7.93632141 302.61805725 8.54194641 C305.20408267 12.47914774 305.2137475 16.71387446 304.7469635 21.26069641 C302.74399682 26.93576866 299.13346171 30.5674473 293.7469635 33.26069641 C292.0589465 33.35822755 290.36707201 33.39169238 288.67624283 33.39491749 C287.5961083 33.39937533 286.51597376 33.40383318 285.40310788 33.40842611 C284.20683231 33.40824174 283.01055674 33.40805738 281.7780304 33.40786743 C280.51465371 33.41154412 279.25127702 33.41522081 277.94961619 33.41900891 C274.43122911 33.42904513 270.91285909 33.4327483 267.39445972 33.43539822 C263.6042896 33.43929648 259.81413304 33.44887515 256.02397156 33.45761108 C246.86489331 33.47738917 237.70581394 33.48744346 228.54671967 33.49633887 C224.23595172 33.50071963 219.925185 33.50608699 215.61441803 33.51132774 C201.28849162 33.52834147 186.96256598 33.54283626 172.63663101 33.55007648 C168.91754912 33.55198645 165.19846724 33.55390677 161.47938538 33.55586243 C160.55499966 33.55634617 159.63061395 33.55682991 158.67821655 33.55732831 C143.69941707 33.5656309 128.7206974 33.59097104 113.74193278 33.6234431 C98.3714102 33.65649339 83.00092821 33.67452341 67.6303699 33.67772073 C58.99717942 33.67988772 50.3641053 33.68866401 41.7309494 33.7141819 C34.37936421 33.73586121 27.02792363 33.74395303 19.67631009 33.73421512 C15.92464616 33.7296623 12.17328078 33.73161313 8.42165756 33.75097656 C4.35550408 33.77178233 0.2900162 33.76164913 -3.77616882 33.7484436 C-4.96352151 33.75941285 -6.15087419 33.7703821 -7.37420726 33.78168374 C-13.64411895 33.73235022 -17.51654012 33.52638283 -22.2530365 29.26069641 C-26.33658466 24.73568358 -27.56933068 21.47004351 -27.46788025 15.31538391 C-26.87988231 9.6919854 -23.48706396 5.7249007 -19.2530365 2.26069641 C-12.91241193 -0.19244056 -6.73272798 -0.02214125 0 0 Z " fill="#B5D0FF" transform="translate(117.25303649902344,355.7393035888672)"/>
<path d="M0 0 C4.80573582 2.61707707 7.09652397 6.22707191 8.8125 11.375 C9.19205021 16.76723061 8.19861528 20.93627285 6.1875 25.875 C5.91752197 26.55989502 5.64754395 27.24479004 5.36938477 27.95043945 C4.80529169 29.3784176 4.23663905 30.80460252 3.66357422 32.22900391 C2.82891412 34.33361156 2.0362163 36.4496661 1.25390625 38.57421875 C0.7530682 39.90382072 0.25178352 41.23325456 -0.25 42.5625 C-0.91708984 44.34720703 -0.91708984 44.34720703 -1.59765625 46.16796875 C-4.37349652 51.76739101 -8.35633489 55.20260516 -14.1875 57.375 C-19.56311705 58.16141291 -23.59848953 57.43434032 -28.1875 54.375 C-32.09262643 50.4171016 -34.34753543 47.23691764 -34.57421875 41.64453125 C-34.49982906 34.1677576 -31.81992866 27.89331564 -29 21.0625 C-28.51091145 19.8150239 -28.02327275 18.56697837 -27.53710938 17.31835938 C-21.97249158 3.4777731 -21.97249158 3.4777731 -14.8125 -0.5 C-9.31601792 -2.20580478 -5.26584963 -2.33062604 0 0 Z " fill="#FEDF1B" transform="translate(327.1875,102.625)"/>
<path d="M0 0 C4.61297084 4.3823223 6.73694565 7.44854118 6.9375 13.875 C6.75353875 18.39431479 6.16613944 21.60563045 3.5 25.375 C-1.50866976 29.81517749 -7.1417861 32.17366229 -13.23583984 34.80371094 C-15.10808959 35.61764841 -16.96553325 36.46032308 -18.82421875 37.3046875 C-26.10072126 40.46432388 -32.51191437 42.68556574 -40.5 41.375 C-44.95146251 39.18973658 -47.68885145 36.4355479 -50.5 32.375 C-52.31647986 26.92556041 -52.48494801 21.48009113 -49.875 16.25 C-46.14814163 10.99283945 -40.28860176 8.74039165 -34.54589844 6.26464844 C-32.42103809 5.34066382 -30.32540962 4.36430144 -28.2265625 3.3828125 C-18.94624476 -0.83883041 -9.90303859 -4.59783934 0 0 Z " fill="#FED904" transform="translate(422.5,194.625)"/>
<path d="M0 0 C1.95770433 0.81558793 3.92608866 1.59994501 5.89697266 2.38305664 C13.72891382 5.57555171 18.15775499 8.1398695 22.58056641 15.37719727 C23.73605646 20.46135351 23.58366787 25.56650354 21.07666016 30.22485352 C17.61693978 34.66498511 13.77752074 37.2389315 8.20556641 38.12719727 C-0.41795434 37.52933314 -8.2364896 34.28429652 -16.10693359 30.93969727 C-17.24710938 30.48272461 -18.38728516 30.02575195 -19.56201172 29.55493164 C-26.00924662 26.84129687 -31.1308395 24.2826662 -34.79443359 18.12719727 C-36.59353516 12.72989256 -36.48912263 8.02671443 -34.16943359 2.87719727 C-31.78399287 -1.42843865 -28.60246663 -4.00400154 -23.84619141 -5.47558594 C-15.50445827 -7.09053118 -7.51410344 -3.14774895 0 0 Z " fill="#FFE42B" transform="translate(116.79443359375,201.872802734375)"/>
<path d="M0 0 C7.42359429 5.06154156 10.10065184 12.5405881 13.5 20.5625 C13.99371094 21.70267578 14.48742187 22.84285156 14.99609375 24.01757812 C21.63789176 39.42109048 21.63789176 39.42109048 18.625 48.125 C16.01306126 51.95584349 12.94676371 54.77661815 8.75 56.875 C3.49424835 57.3988576 -0.89526095 57.54005372 -5.6875 55.1875 C-11.98654823 49.50299306 -14.69542556 42.86971348 -17.9375 35.1875 C-18.68483398 33.4869043 -18.68483398 33.4869043 -19.44726562 31.75195312 C-25.7994251 16.7980906 -25.7994251 16.7980906 -23.51220703 9.53076172 C-21.63567099 5.23548742 -19.23761836 2.43116561 -15.25 -0.125 C-10.0828841 -1.84737197 -5.14400242 -1.78061622 0 0 Z " fill="#FFE42B" transform="translate(196.25,104.125)"/>
</svg>
